<?xml version="1.0" encoding="utf-8"?>
<!-- Generator: Adobe Illustrator 23.0.6, SVG Export Plug-In . SVG Version: 6.00 Build 0)  -->
<svg version="1.1" id="Слой_1" xmlns="http://www.w3.org/2000/svg" xmlns:xlink="http://www.w3.org/1999/xlink" x="0px" y="0px"
	 viewBox="0 0 24 24" style="enable-background:new 0 0 24 24;" xml:space="preserve">
<style type="text/css">
	.st0{fill:url(#SVGID_1_);}
	.st1{fill:url(#SVGID_2_);}
</style>
<title></title>
<linearGradient id="SVGID_1_" gradientUnits="userSpaceOnUse" x1="5" y1="19" x2="19" y2="19">
	<stop  offset="0" style="stop-color:#00D4FC"/>
	<stop  offset="0.9944" style="stop-color:#FF6AEA"/>
</linearGradient>
<path class="st0" d="M18,20H6c-0.6,0-1-0.4-1-1s0.4-1,1-1h12c0.6,0,1,0.4,1,1S18.6,20,18,20z"/>
<linearGradient id="SVGID_2_" gradientUnits="userSpaceOnUse" x1="8.0018" y1="10.0001" x2="15.9982" y2="10.0001">
	<stop  offset="0" style="stop-color:#00D4FC"/>
	<stop  offset="0.9944" style="stop-color:#FF6AEA"/>
</linearGradient>
<path class="st1" d="M15.9,11.6C15.8,11.2,15.4,11,15,11h-2V5c0-0.6-0.4-1-1-1s-1,0.4-1,1v6H9c-0.4,0-0.8,0.2-0.9,0.6
	C7.9,12,8,12.4,8.3,12.7l3,3c0.1,0.1,0.2,0.2,0.3,0.2c0.2,0.1,0.5,0.1,0.8,0c0.1,0,0.2-0.1,0.3-0.2l3-3C16,12.4,16.1,12,15.9,11.6z"
	/>
<image style="overflow:visible;" width="1080" height="1080" xlink:href="WKrQKbymcXUe.png"  transform="matrix(3.093171e-02 0 0 3.093171e-02 24.75 -23.4061)">
</image>
</svg>
