<?xml version="1.0" encoding="utf-8"?>
<!-- Generator: Adobe Illustrator 23.0.6, SVG Export Plug-In . SVG Version: 6.00 Build 0)  -->
<svg version="1.1" id="svg10648" xmlns:svg="http://www.w3.org/2000/svg"
	 xmlns="http://www.w3.org/2000/svg" xmlns:xlink="http://www.w3.org/1999/xlink" x="0px" y="0px" viewBox="0 0 512 512"
	 style="enable-background:new 0 0 512 512;" xml:space="preserve">
<style type="text/css">
	.st0{fill:url(#path5961_1_);}
</style>
<g id="layer1">
	<linearGradient id="path5961_1_" gradientUnits="userSpaceOnUse" x1="32.0037" y1="256" x2="479.9962" y2="256">
		<stop  offset="0" style="stop-color:#00D5FC"/>
		<stop  offset="1" style="stop-color:#FF6DEA"/>
	</linearGradient>
	<path id="path5961" vector-effect="none" class="st0" d="M254.9,32c-3.7,0.3-7.1,1.8-9.8,4.3l-208,191.9c-3.3,3.1-5.1,7.3-5.1,11.8
		v224.1c0,8.8,7.2,15.9,15.9,15.9h143.9c8.8,0,16-7.1,16.1-15.9c0,0,0,0,0,0L208,320h96l0.1,144.1c0,8.8,7.1,15.9,15.9,15.9h143.9
		c8.8,0,16-7.1,16.1-15.9c0,0,0,0,0,0V240c0-4.5-1.9-8.8-5.2-11.8l-208-191.9C263.6,33.3,259.3,31.7,254.9,32L254.9,32z M255.9,69.8
		L448,247v201H336.1L336,304c0-8.8-7.1-16-15.9-16.1c0,0-0.1,0-0.1,0h-128c-8.8,0-16,7.2-15.9,16.1c0,0,0,0,0,0l-0.1,144H64V247
		L255.9,69.8z"/>
</g>
</svg>
