<?xml version="1.0" encoding="utf-8"?>
<!-- Generator: Adobe Illustrator 23.0.6, SVG Export Plug-In . SVG Version: 6.00 Build 0)  -->
<svg version="1.1" id="Layer_1" xmlns="http://www.w3.org/2000/svg" xmlns:xlink="http://www.w3.org/1999/xlink" x="0px" y="0px"
	 viewBox="0 0 200 200" style="enable-background:new 0 0 200 200;" xml:space="preserve">
<style type="text/css">
	.st0{fill:url(#SVGID_1_);}
	.st1{fill:url(#path5961_1_);}
	.st2{fill:none;stroke:url(#SVGID_2_);stroke-width:12;stroke-miterlimit:10;}
</style>
<title></title>
<linearGradient id="SVGID_1_" gradientUnits="userSpaceOnUse" x1="45.5" y1="105.5553" x2="148.8946" y2="105.5553">
	<stop  offset="0" style="stop-color:#00D5FC"/>
	<stop  offset="1" style="stop-color:#FF6DEA"/>
</linearGradient>
<path class="st0" d="M141.5,81.9l-32.3-25.5c-7-5.5-16.9-5.5-23.9,0L52.9,81.9c-4.7,3.6-7.4,9.2-7.4,15.2v48.8
	c0,7.1,5.8,12.9,12.9,12.9h18.4c7.1,0,12.9-5.8,12.9-12.9v-24.2h17.8v24.2c0,7.1,5.8,12.9,12.9,12.9H136c7.1,0,12.9-5.8,12.9-12.9
	V97.1C148.9,91.2,146.1,85.6,141.5,81.9z M136,145.9h-15.5v-24.2c0-7.1-5.8-12.9-12.9-12.9H89.8c-7.1,0-12.9,5.8-12.9,12.9v24.2
	H58.4V97.1c0-2,1-3.9,2.6-5.2l32.3-25.5c2.3-1.9,5.5-1.9,8.1,0l32.3,25.5c1.6,1.2,2.5,3.1,2.6,5.2v48.8H136z"/>
<g id="layer1">
	
		<linearGradient id="path5961_1_" gradientUnits="userSpaceOnUse" x1="-124.0531" y1="96.362" x2="-16.8031" y2="96.362" gradientTransform="matrix(1 0 0 -1 0 199.8898)">
		<stop  offset="0" style="stop-color:#00D5FC"/>
		<stop  offset="1" style="stop-color:#FF6DEA"/>
	</linearGradient>
	<path id="path5961" vector-effect="none" class="st1" d="M-70.7,48.2c-0.9,0.1-1.7,0.4-2.3,1.1l-49.8,47.4
		c-0.8,0.8-1.2,1.8-1.2,2.9v55.3c0,2.2,1.7,3.9,3.8,3.9h34.4c2.1,0,3.8-1.8,3.9-3.9l0,0l0-35.6h23l0,35.6c0,2.2,1.7,3.9,3.8,3.9
		h34.4c2.1,0,3.8-1.8,3.9-3.9l0,0V99.6c0-1.1-0.5-2.2-1.2-2.9l-49.8-47.4C-68.6,48.6-69.6,48.2-70.7,48.2L-70.7,48.2z M-70.5,57.6
		l46,43.7v49.6h-26.8l0-35.5c0-2.2-1.7-3.9-3.8-4h0h-30.6c-2.1,0-3.8,1.8-3.8,4l0,0l0,35.5h-26.8v-49.6L-70.5,57.6z"/>
</g>
<linearGradient id="SVGID_2_" gradientUnits="userSpaceOnUse" x1="10.9697" y1="108.0233" x2="183.748" y2="108.0233">
	<stop  offset="0" style="stop-color:#00D4FE"/>
	<stop  offset="1" style="stop-color:#FF70EE"/>
</linearGradient>
<ellipse class="st2" cx="97.4" cy="108" rx="80.4" ry="78.5"/>
</svg>
