<?xml version="1.0" encoding="utf-8"?>
<!-- Generator: Adobe Illustrator 23.0.6, SVG Export Plug-In . SVG Version: 6.00 Build 0)  -->
<svg version="1.1" id="Layer_1" xmlns="http://www.w3.org/2000/svg" xmlns:xlink="http://www.w3.org/1999/xlink" x="0px" y="0px"
	 viewBox="0 0 200 200" style="enable-background:new 0 0 200 200;" xml:space="preserve">
<style type="text/css">
	.st0{fill:url(#SVGID_1_);}
	.st1{fill:none;stroke:url(#SVGID_2_);stroke-width:12;stroke-miterlimit:10;}
</style>
<title></title>
<linearGradient id="SVGID_1_" gradientUnits="userSpaceOnUse" x1="51.8027" y1="99.8815" x2="155.1973" y2="99.8815">
	<stop  offset="0" style="stop-color:#00D5FC"/>
	<stop  offset="1" style="stop-color:#FF6DEA"/>
</linearGradient>
<path class="st0" d="M147.8,76.3l-32.3-25.5c-7-5.5-16.9-5.5-23.9,0L59.2,76.3c-4.7,3.6-7.4,9.2-7.4,15.2v48.8
	c0,7.1,5.8,12.9,12.9,12.9h18.4c7.1,0,12.9-5.8,12.9-12.9V116h17.8v24.2c0,7.1,5.8,12.9,12.9,12.9h15.5c7.1,0,12.9-5.8,12.9-12.9
	V91.4C155.2,85.5,152.4,79.9,147.8,76.3z M142.3,140.2h-15.5V116c0-7.1-5.8-12.9-12.9-12.9H96.1c-7.1,0-12.9,5.8-12.9,12.9v24.2
	H64.7V91.4c0-2,1-3.9,2.6-5.2l32.3-25.5c2.3-1.9,5.5-1.9,8.1,0L140,86.3c1.6,1.2,2.5,3.1,2.6,5.2v48.8H142.3z"/>
<linearGradient id="SVGID_2_" gradientUnits="userSpaceOnUse" x1="17.1108" y1="99.8815" x2="189.8892" y2="99.8815">
	<stop  offset="0" style="stop-color:#00D4FE"/>
	<stop  offset="1" style="stop-color:#FF70EE"/>
</linearGradient>
<ellipse class="st1" cx="103.5" cy="99.9" rx="80.4" ry="78.5"/>
</svg>
