<?xml version="1.0" encoding="utf-8"?>
<!-- Generator: Adobe Illustrator 23.0.6, SVG Export Plug-In . SVG Version: 6.00 Build 0)  -->
<svg version="1.1" id="Слой_1" xmlns="http://www.w3.org/2000/svg" xmlns:xlink="http://www.w3.org/1999/xlink" x="0px" y="0px"
	 viewBox="0 0 32 32" style="enable-background:new 0 0 32 32;" xml:space="preserve">
<style type="text/css">
	.st0{fill:url(#SVGID_1_);}
</style>
<linearGradient id="SVGID_1_" gradientUnits="userSpaceOnUse" x1="2.0002" y1="15.6681" x2="27.9944" y2="15.6681">
	<stop  offset="0" style="stop-color:#00D4FC"/>
	<stop  offset="0.6173" style="stop-color:#9299F2"/>
	<stop  offset="1" style="stop-color:#FF6DEA"/>
</linearGradient>
<path class="st0" d="M26.1,4c-0.3,0-0.7,0.1-0.9,0.2h0c-0.3,0.1-1.6,0.7-3.7,1.5c-2.1,0.9-4.7,2-7.4,3.1c-5.3,2.2-10.5,4.4-10.5,4.4
	l0.1,0c0,0-0.4,0.1-0.7,0.4c-0.2,0.1-0.4,0.3-0.6,0.6C2.1,14.5,2,14.9,2,15.3c0.1,0.7,0.6,1.2,0.9,1.4c0.3,0.2,0.7,0.4,0.7,0.4h0
	l4.9,1.6c0.2,0.7,1.5,4.9,1.8,5.8c0.2,0.6,0.4,0.9,0.6,1.2c0.1,0.1,0.2,0.3,0.4,0.4c0.1,0,0.1,0.1,0.2,0.1c0,0,0,0,0.1,0l-0.1,0
	c0,0,0,0,0,0c0,0,0.1,0,0.1,0C12.3,26.5,13,26,13,26l0,0l2.9-2.6l4.8,3.7l0.1,0c1,0.4,2,0.2,2.6-0.2c0.5-0.4,0.8-1,0.8-1l0-0.1
	l3.7-19.1c0.1-0.5,0.1-0.9,0-1.3c-0.1-0.4-0.4-0.8-0.8-1C26.8,4,26.4,4,26.1,4z M26,6c0,0.1,0,0.1,0,0.2v0l-3.7,18.9
	c0,0,0,0.1-0.1,0.1c-0.1,0.1-0.1,0.1-0.5,0l-5.9-4.5L12.2,24l0.8-4.8c0,0,9.3-8.6,9.7-9c0.4-0.4,0.3-0.4,0.3-0.4
	c0-0.5-0.6-0.1-0.6-0.1l-12.2,7.5l0,0l-5.8-2v0c0,0,0,0,0,0c0,0,0,0,0,0l0,0l0,0c0,0,5.2-2.2,10.5-4.4c2.7-1.1,5.3-2.2,7.4-3.1
	c2.1-0.9,3.6-1.5,3.7-1.5C25.9,6,25.9,6,26,6z"/>
</svg>
