<?xml version="1.0" encoding="utf-8"?>
<!-- Generator: Adobe Illustrator 23.0.6, SVG Export Plug-In . SVG Version: 6.00 Build 0)  -->
<svg version="1.1" id="Слой_1" xmlns="http://www.w3.org/2000/svg" xmlns:xlink="http://www.w3.org/1999/xlink" x="0px" y="0px"
	 viewBox="0 0 32 32" style="enable-background:new 0 0 32 32;" xml:space="preserve">
<style type="text/css">
	.st0{fill:url(#SVGID_1_);}
</style>
<linearGradient id="SVGID_1_" gradientUnits="userSpaceOnUse" x1="5.8712" y1="14.3766" x2="26.1288" y2="14.3766" gradientTransform="matrix(1 0 0 -1 0 31.8898)">
	<stop  offset="0" style="stop-color:#00D4FC"/>
	<stop  offset="0.6173" style="stop-color:#9299F2"/>
	<stop  offset="1" style="stop-color:#FF6DEA"/>
</linearGradient>
<path class="st0" d="M24.7,7.4c-0.2,0-0.5,0.1-0.7,0.2l0,0c-0.2,0.1-1.2,0.6-2.9,1.3c-1.6,0.8-3.7,1.7-5.8,2.7
	c-4.1,1.9-8.2,3.8-8.2,3.8h0.1c0,0-0.3,0.1-0.5,0.3c-0.2,0.1-0.3,0.3-0.5,0.5c-0.2,0.3-0.3,0.6-0.3,1c0.1,0.6,0.5,1,0.7,1.2
	c0.2,0.2,0.5,0.3,0.5,0.3l0,0l3.8,1.4c0.2,0.6,1.2,4.3,1.4,5c0.2,0.5,0.3,0.8,0.5,1c0.1,0.1,0.2,0.3,0.3,0.3c0.1,0,0.1,0.1,0.2,0.1
	c0,0,0,0,0.1,0h-0.1l0,0h0.1c0.5,0.3,1.1-0.2,1.1-0.2l0,0l2.3-2.3l3.7,3.2h0.1c0.8,0.3,1.6,0.2,2-0.2c0.4-0.3,0.6-0.9,0.6-0.9v-0.1
	l2.9-16.6c0.1-0.4,0-0.8,0-1.1c0-0.2,0.1-0.5-0.4-0.9C25.2,7.4,24.9,7.4,24.7,7.4z M24.6,9.3L24.6,9.3l-2.9,16.4c0,0,0,0.1-0.1,0.1
	c-0.1,0.1-0.1,0.1-0.4,0l-4.6-3.9l-2.8,2.9l0.6-4.2c0,0,7.3-7.5,7.6-7.8c0.3-0.3,0.2-0.3,0.2-0.3c0-0.4-0.5-0.1-0.5-0.1l-9.5,6.5
	l0,0l-4.5-1.7l0,0l0,0l0,0l0,0l0,0c0,0,4.1-1.9,8.2-3.8c2.1-1,4.1-1.9,5.8-2.7S25.3,9,25.4,9C25.3,8.9,24.6,9.2,24.6,9.3z"/>
</svg>
