<?xml version="1.0" encoding="utf-8"?>
<!-- Generator: Adobe Illustrator 23.0.6, SVG Export Plug-In . SVG Version: 6.00 Build 0)  -->
<svg version="1.1" id="Слой_1" xmlns="http://www.w3.org/2000/svg" xmlns:xlink="http://www.w3.org/1999/xlink" x="0px" y="0px"
	 viewBox="0 0 32 32" style="enable-background:new 0 0 32 32;" xml:space="preserve">
<style type="text/css">
	.st0{fill:url(#SVGID_1_);}
</style>
<linearGradient id="SVGID_1_" gradientUnits="userSpaceOnUse" x1="4.0841" y1="16.4704" x2="26.6181" y2="16.4704" gradientTransform="matrix(1 0 0 -1 0 31.8898)">
	<stop  offset="0" style="stop-color:#00D4FC"/>
	<stop  offset="0.6173" style="stop-color:#9299F2"/>
	<stop  offset="1" style="stop-color:#FF6DEA"/>
</linearGradient>
<path class="st0" d="M25,5.3c-0.3,0-0.6,0.1-0.8,0.2l0,0C24,5.6,22.8,6.1,21,6.8c-1.8,0.8-4.1,1.7-6.4,2.7c-4.6,1.9-9.1,3.8-9.1,3.8
	h0.1c0,0-0.3,0.1-0.6,0.3c-0.2,0.1-0.3,0.3-0.5,0.5c-0.3,0.3-0.3,0.6-0.3,1c0.1,0.6,0.5,1,0.8,1.2c0.3,0.2,0.6,0.3,0.6,0.3l0,0
	l4.3,1.4c0.2,0.6,1.3,4.3,1.6,5c0.2,0.5,0.3,0.8,0.5,1c0.1,0.1,0.2,0.3,0.3,0.3c0.1,0,0.1,0.1,0.2,0.1c0,0,0,0,0.1,0h-0.1l0,0h0.1
	c0.6,0.3,1.2-0.2,1.2-0.2l0,0l2.5-2.3l4.2,3.2h0.1c0.9,0.3,1.7,0.2,2.3-0.2c0.4-0.3,0.7-0.9,0.7-0.9v-0.1l3.2-16.6
	c0.1-0.4,0-0.8,0-1.1c0-0.2,0.1-0.5-0.5-0.9C25.5,5.3,25.3,5.3,25,5.3z M24.9,7.2L24.9,7.2l-3.2,16.4c0,0,0,0.1-0.1,0.1
	c-0.1,0.1-0.1,0.1-0.4,0l-5.1-3.9l-3.1,2.9l0.7-4.2c0,0,8.1-7.5,8.4-7.8c0.3-0.3,0.3-0.3,0.3-0.3c0-0.4-0.5-0.1-0.5-0.1l-10.6,6.5
	l0,0l-5-1.7l0,0l0,0l0,0l0,0l0,0c0,0,4.5-1.9,9.1-3.8c2.3-1,4.6-1.9,6.4-2.7c1.8-0.8,4-1.6,4.1-1.6C25.7,6.8,24.9,7.1,24.9,7.2z"/>
</svg>
