<?xml version="1.0" encoding="utf-8"?>
<!-- Generator: Adobe Illustrator 23.0.6, SVG Export Plug-In . SVG Version: 6.00 Build 0)  -->
<svg version="1.1" id="Слой_1" xmlns="http://www.w3.org/2000/svg" xmlns:xlink="http://www.w3.org/1999/xlink" x="0px" y="0px"
	 viewBox="0 0 32 32" style="enable-background:new 0 0 32 32;" xml:space="preserve">
<style type="text/css">
	.st0{fill:url(#SVGID_1_);}
</style>
<title></title>
<g id="vk_vkontakte_media_social">
	<linearGradient id="SVGID_1_" gradientUnits="userSpaceOnUse" x1="2.9071" y1="15.8133" x2="29.0929" y2="15.8133">
		<stop  offset="0" style="stop-color:#00D4FC"/>
		<stop  offset="0.6173" style="stop-color:#9299F2"/>
		<stop  offset="1" style="stop-color:#FF6DEA"/>
	</linearGradient>
	<path class="st0" d="M28.8,21.3c-1.2-1.9-2.6-3.6-4.1-5.1c-0.1-0.1-0.1-0.2,0-0.2c1.3-1.8,2.5-3.8,3.5-5.8c0.3-0.6,0.3-1.3-0.1-1.9
		c-0.3-0.6-0.9-0.9-1.6-0.9h-3c-0.8,0-1.5,0.5-1.8,1.2c-0.9,1.9-1.9,3.8-3.1,5.5V9.1c0-1-0.8-1.8-1.8-1.8c0,0,0,0,0,0h-4.4
		c-0.8,0-1.4,0.6-1.4,1.4c0,0.3,0.1,0.6,0.3,0.8l0.4,0.6c0.2,0.3,0.3,0.7,0.3,1.1V15c-1.3-2-2.4-4.1-3.1-6.3c-0.3-0.8-1-1.3-1.9-1.4
		H4.6c-1,0-1.7,0.8-1.7,1.8c0,0.1,0,0.3,0,0.4c1.3,5.7,4.2,10.5,7.8,13c0.4,0.3,1.6,0.8,2.7,1.3c2.4,1,3.2,0.6,2.6,0
		c-1.1-0.2,4.8-0.7-0.3-1.4c-0.6-0.1-2.9-0.9-3.8-1.5c0,0,0,0,0,0C8.7,18.6,6.2,14.4,5,9.3h2.1c0.9,2.8,2.3,5.4,4.1,7.7
		c0.4,0.5,1.2,0.8,1.8,0.5c0.7-0.2,1.1-0.9,1.1-1.6v-4.9c0-0.6-0.2-1.3-0.5-1.8h3v5.4c0,0.8,0.5,1.5,1.3,1.7c0.7,0.2,1.6,0,2-0.7
		c1.4-2,2.6-4.2,3.6-6.5h2.8c-1,1.9-2.1,3.7-3.3,5.4c-0.6,0.9-0.6,2.1,0.2,2.8c1.5,1.5,2.8,3.1,3.9,4.8h-3.4c-1-1.7-2.4-3.2-4.1-4.3
		c-0.5-0.4-1.2-0.4-1.7-0.1c-0.6,0.3-0.9,0.9-0.9,1.5v2.4c0,0.3-0.2,0.5-0.5,0.5h-0.9c-0.6,0-1,0.4-1,1s0.4,1,1,1h0.9
		c1.4,0,2.5-1.1,2.5-2.5c0,0,0,0,0,0V20c1.2,0.9,2.2,2,3,3.3c0.3,0.6,1,1,1.7,1h3.4c0.7,0,1.4-0.4,1.7-1
		C29.2,22.7,29.2,21.9,28.8,21.3z"/>
</g>
</svg>
