<svg width="256" height="256" xmlns="http://www.w3.org/2000/svg">
 <defs>
  <filter height="200%" width="200%" y="-50%" x="-50%" id="svg_1_blur">
   <feGaussianBlur stdDeviation="0" in="SourceGraphic"/>
  </filter>
  <filter height="200%" width="200%" y="-50%" x="-50%" id="svg_4_blur">
   <feGaussianBlur stdDeviation="10" in="SourceGraphic"/>
  </filter>
  <filter height="200%" width="200%" y="-50%" x="-50%" id="svg_5_blur">
   <feGaussianBlur stdDeviation="10" in="SourceGraphic"/>
  </filter>
 </defs>
 <g>
  <title>background</title>
  <rect fill="none" id="canvas_background" height="402" width="582" y="-1" x="-1"/>
 </g>
 <g>
  <title>Layer 1</title>
  <path filter="url(#svg_4_blur)" stroke-width="83" fill="#ff0000" id="svg_4" d="m137.051,128.48163l75.475,-75.475c2.5,-2.5 2.5,-6.551 0,-9.051s-6.551,-2.5 -9.051,0l-75.475,75.475l-75.475,-75.474c-2.5,-2.5 -6.551,-2.5 -9.051,0s-2.5,6.551 0,9.051l75.475,75.474l-75.475,75.475c-2.5,2.5 -2.5,6.551 0,9.051c1.25,1.25 2.888,1.875 4.525,1.875s3.275,-0.625 4.525,-1.875l75.476,-75.475l75.475,75.475c1.25,1.25 2.888,1.875 4.525,1.875s3.275,-0.625 4.525,-1.875c2.5,-2.5 2.5,-6.551 0,-9.051l-75.474,-75.475z"/>
  <path filter="url(#svg_5_blur)" stroke-width="83" fill="#ff0000" id="svg_5" d="m137.051,128.48163l75.475,-75.475c2.5,-2.5 2.5,-6.551 0,-9.051s-6.551,-2.5 -9.051,0l-75.475,75.475l-75.475,-75.474c-2.5,-2.5 -6.551,-2.5 -9.051,0s-2.5,6.551 0,9.051l75.475,75.474l-75.475,75.475c-2.5,2.5 -2.5,6.551 0,9.051c1.25,1.25 2.888,1.875 4.525,1.875s3.275,-0.625 4.525,-1.875l75.476,-75.475l75.475,75.475c1.25,1.25 2.888,1.875 4.525,1.875s3.275,-0.625 4.525,-1.875c2.5,-2.5 2.5,-6.551 0,-9.051l-75.474,-75.475z"/>
  <path stroke-width="83" filter="url(#svg_1_blur)" fill="#63b0cd" id="svg_1" d="m137.051,128.481631l75.475,-75.475c2.5,-2.5 2.5,-6.551 0,-9.051s-6.551,-2.5 -9.051,0l-75.475,75.475l-75.475,-75.474c-2.5,-2.5 -6.551,-2.5 -9.051,0s-2.5,6.551 0,9.051l75.475,75.474l-75.475,75.475c-2.5,2.5 -2.5,6.551 0,9.051c1.25,1.25 2.888,1.875 4.525,1.875s3.275,-0.625 4.525,-1.875l75.476,-75.475l75.475,75.475c1.25,1.25 2.888,1.875 4.525,1.875s3.275,-0.625 4.525,-1.875c2.5,-2.5 2.5,-6.551 0,-9.051l-75.474,-75.475z"/>
 </g>
</svg>