<svg width="8.4666665" height="8.4666669" xmlns="http://www.w3.org/2000/svg">
 <defs>
  <filter height="200%" width="200%" y="-50%" x="-50%" id="svg_1_blur">
   <feGaussianBlur stdDeviation="0.1" in="SourceGraphic"/>
  </filter>
  <filter id="svg_2_blur">
   <feGaussianBlur stdDeviation="0.1" in="SourceGraphic"/>
  </filter>
 </defs>
 <g>
  <title>background</title>
  <rect fill="none" id="canvas_background" height="402" width="582" y="-1" x="-1"/>
 </g>
 <g>
  <title fill="#63b0cd">Layer 1</title>
  <path clip-rule="nonzero" fill="#63b0cd" fill-rule="nonzero" stroke-width="0.529167" stroke-linecap="round" stroke-linejoin="round" stroke-miterlimit="4" stroke-dashoffset="0" id="path940" d="m3.70417,0.264575a0.26461,0.26461 0 0 0 -0.25115,0.18087l-0.26872,0.80615c-0.10849,0.0382 -0.21462,0.082 -0.31833,0.13178l-0.76016,-0.37982a0.26461,0.26461 0 0 0 -0.3054,0.0496l-0.74828,0.74827a0.26461,0.26461 0 0 0 -0.04961,0.30541l0.37931,0.75861c-0.0499,0.10423 -0.09405,0.21083 -0.13229,0.31988l-0.80512,0.26871a0.26461,0.26461 0 0 0 -0.18087,0.25115l0,1.05833a0.26461,0.26461 0 0 0 0.18087,0.25115l0.8077,0.26924c0.03807,0.10784 0.08178,0.21314 0.13126,0.31625l-0.38086,0.76172a0.26461,0.26461 0 0 0 0.04961,0.3054l0.74828,0.74879a0.26461,0.26461 0 0 0 0.3054,0.0496l0.76016,-0.38033c0.10361,0.0495 0.20946,0.0932 0.31781,0.13125l0.26924,0.80719a0.26461,0.26461 0 0 0 0.25115,0.18087l1.05833,0a0.26461,0.26461 0 0 0 0.25115,-0.18087l0.26923,-0.80874c0.10755,-0.0379 0.2129,-0.0815 0.31574,-0.13074l0.76223,0.38137a0.26461,0.26461 0 0 0 0.30541,-0.0496l0.74827,-0.74879a0.26461,0.26461 0 0 0 0.04961,-0.3054l-0.37982,-0.75965c0.04979,-0.10387 0.09356,-0.21018 0.13178,-0.31884l0.80615,-0.26871a0.26461,0.26461 0 0 0 0.18087,-0.25115l0,-1.05833a0.26461,0.26461 0 0 0 -0.18087,-0.25115l-0.80667,-0.26871c-0.03819,-0.10832 -0.08208,-0.21427 -0.13177,-0.31781l0.38033,-0.76068a0.26461,0.26461 0 0 0 -0.04961,-0.30541l-0.74827,-0.74827a0.26461,0.26461 0 0 0 -0.30541,-0.0496l-0.75809,0.37878c-0.10458,-0.05 -0.2115,-0.094 -0.32091,-0.13229l-0.2682,-0.8046a0.26461,0.26461 0 0 0 -0.25115,-0.18088l-1.05833,0zm0.19068,0.52917l0.67696,0l0.24547,0.73691a0.26461,0.26461 0 0 0 0.1757,0.17001c0.1722,0.0512 0.33883,0.11967 0.49712,0.20464a0.26461,0.26461 0 0 0 0.2434,0.004l0.6935,-0.34675l0.47852,0.47852l-0.3483,0.6966a0.26461,0.26461 0 0 0 0.00362,0.24391c0.08477,0.15725 0.15373,0.32244 0.20516,0.49351a0.26461,0.26461 0 0 0 0.1695,0.17519l0.73845,0.24598l0,0.67696l-0.73794,0.24598a0.26461,0.26461 0 0 0 -0.1695,0.17518c-0.05137,0.1714 -0.12032,0.337 -0.20515,0.49454a0.26461,0.26461 0 0 0 -0.00362,0.24392l0.34778,0.69556l-0.47852,0.47904l-0.69815,-0.34933a0.26461,0.26461 0 0 0 -0.24391,0.004c-0.15669,0.0843 -0.32105,0.15287 -0.49145,0.20412a0.26461,0.26461 0 0 0 -0.17518,0.1695l-0.2465,0.74052l-0.67696,0l-0.24649,-0.73949a0.26461,0.26461 0 0 0 -0.17519,-0.17001c-0.17104,-0.0511 -0.33674,-0.11916 -0.49402,-0.20361a0.26461,0.26461 0 0 0 -0.2434,-0.004l-0.69608,0.3483l-0.47853,-0.47904l0.34882,-0.69763a0.26461,0.26461 0 0 0 -0.00362,-0.24391c-0.08452,-0.15682 -0.15327,-0.32191 -0.20464,-0.49248a0.26461,0.26461 0 0 0 -0.1695,-0.17467l-0.73949,-0.24649l0,-0.67696l0.73743,-0.24598a0.26461,0.26461 0 0 0 0.17001,-0.17519c0.05131,-0.17172 0.11976,-0.33773 0.20464,-0.49557a0.26461,0.26461 0 0 0 0.00362,-0.24392l-0.34727,-0.69453l0.47853,-0.47852l0.69608,0.34778a0.26461,0.26461 0 0 0 0.24391,-0.004c0.1574,-0.0848 0.32279,-0.15375 0.49403,-0.20515a0.26461,0.26461 0 0 0 0.17518,-0.1695l0.24598,-0.73794z"/>
  <path clip-rule="nonzero" fill="#63b0cd" fill-rule="nonzero" stroke-width="0.529167" stroke-linecap="round" stroke-linejoin="round" stroke-miterlimit="4" stroke-dashoffset="0" id="path961" d="m4.23242,2.380735c-1.01974,0 -1.85156,0.83377 -1.85156,1.85352c0,1.01974 0.83182,1.85156 1.85156,1.85156c1.01975,0 1.85352,-0.83182 1.85352,-1.85156c0,-1.01975 -0.83377,-1.85352 -1.85352,-1.85352zm0,0.5293c0.73376,0 1.32422,0.59046 1.32422,1.32422c0,0.73376 -0.59046,1.32226 -1.32422,1.32226c-0.73376,0 -1.32226,-0.5885 -1.32226,-1.32226c0,-0.73376 0.5885,-1.32422 1.32226,-1.32422z"/>
  <path filter="url(#svg_1_blur)" clip-rule="nonzero" fill="#63b0cd" fill-rule="nonzero" stroke-width="0.529167" stroke-linecap="round" stroke-linejoin="round" stroke-miterlimit="4" stroke-dashoffset="0" id="svg_1" d="m3.70417,0.26457a0.26461,0.26461 0 0 0 -0.25115,0.18087l-0.26872,0.80615c-0.10849,0.0382 -0.21462,0.082 -0.31833,0.13178l-0.76016,-0.37982a0.26461,0.26461 0 0 0 -0.3054,0.0496l-0.74828,0.74827a0.26461,0.26461 0 0 0 -0.04961,0.30541l0.37931,0.75861c-0.0499,0.10423 -0.09405,0.21083 -0.13229,0.31988l-0.80512,0.26871a0.26461,0.26461 0 0 0 -0.18087,0.25115l0,1.05833a0.26461,0.26461 0 0 0 0.18087,0.25115l0.8077,0.26924c0.03807,0.10784 0.08178,0.21314 0.13126,0.31625l-0.38086,0.76172a0.26461,0.26461 0 0 0 0.04961,0.3054l0.74828,0.74879a0.26461,0.26461 0 0 0 0.3054,0.0496l0.76016,-0.38033c0.10361,0.0495 0.20946,0.0932 0.31781,0.13125l0.26924,0.80719a0.26461,0.26461 0 0 0 0.25115,0.18087l1.05833,0a0.26461,0.26461 0 0 0 0.25115,-0.18087l0.26923,-0.80874c0.10755,-0.0379 0.2129,-0.0815 0.31574,-0.13074l0.76223,0.38137a0.26461,0.26461 0 0 0 0.30541,-0.0496l0.74827,-0.74879a0.26461,0.26461 0 0 0 0.04961,-0.3054l-0.37982,-0.75965c0.04979,-0.10387 0.09356,-0.21018 0.13178,-0.31884l0.80615,-0.26871a0.26461,0.26461 0 0 0 0.18087,-0.25115l0,-1.05833a0.26461,0.26461 0 0 0 -0.18087,-0.25115l-0.80667,-0.26871c-0.03819,-0.10832 -0.08208,-0.21427 -0.13177,-0.31781l0.38033,-0.76068a0.26461,0.26461 0 0 0 -0.04961,-0.30541l-0.74827,-0.74827a0.26461,0.26461 0 0 0 -0.30541,-0.0496l-0.75809,0.37878c-0.10458,-0.05 -0.2115,-0.094 -0.32091,-0.13229l-0.2682,-0.8046a0.26461,0.26461 0 0 0 -0.25115,-0.18088l-1.05833,0zm0.19068,0.52917l0.67696,0l0.24547,0.73691a0.26461,0.26461 0 0 0 0.1757,0.17001c0.1722,0.0512 0.33883,0.11967 0.49712,0.20464a0.26461,0.26461 0 0 0 0.2434,0.004l0.6935,-0.34675l0.47852,0.47852l-0.3483,0.6966a0.26461,0.26461 0 0 0 0.00362,0.24391c0.08477,0.15725 0.15373,0.32244 0.20516,0.49351a0.26461,0.26461 0 0 0 0.1695,0.17519l0.73845,0.24598l0,0.67696l-0.73794,0.24598a0.26461,0.26461 0 0 0 -0.1695,0.17518c-0.05137,0.1714 -0.12032,0.337 -0.20515,0.49454a0.26461,0.26461 0 0 0 -0.00362,0.24392l0.34778,0.69556l-0.47852,0.47904l-0.69815,-0.34933a0.26461,0.26461 0 0 0 -0.24391,0.004c-0.15669,0.0843 -0.32105,0.15287 -0.49145,0.20412a0.26461,0.26461 0 0 0 -0.17518,0.1695l-0.2465,0.74052l-0.67696,0l-0.24649,-0.73949a0.26461,0.26461 0 0 0 -0.17519,-0.17001c-0.17104,-0.0511 -0.33674,-0.11916 -0.49402,-0.20361a0.26461,0.26461 0 0 0 -0.2434,-0.004l-0.69608,0.3483l-0.47853,-0.47904l0.34882,-0.69763a0.26461,0.26461 0 0 0 -0.00362,-0.24391c-0.08452,-0.15682 -0.15327,-0.32191 -0.20464,-0.49248a0.26461,0.26461 0 0 0 -0.1695,-0.17467l-0.73949,-0.24649l0,-0.67696l0.73743,-0.24598a0.26461,0.26461 0 0 0 0.17001,-0.17519c0.05131,-0.17172 0.11976,-0.33773 0.20464,-0.49557a0.26461,0.26461 0 0 0 0.00362,-0.24392l-0.34727,-0.69453l0.47853,-0.47852l0.69608,0.34778a0.26461,0.26461 0 0 0 0.24391,-0.004c0.1574,-0.0848 0.32279,-0.15375 0.49403,-0.20515a0.26461,0.26461 0 0 0 0.17518,-0.1695l0.24598,-0.73794z"/>
  <path filter="url(#svg_2_blur)" clip-rule="nonzero" fill="#63b0cd" fill-rule="nonzero" stroke-width="0.529167" stroke-linecap="round" stroke-linejoin="round" stroke-miterlimit="4" stroke-dashoffset="0" id="svg_2" d="m4.23242,2.38073c-1.01974,0 -1.85156,0.83377 -1.85156,1.85352c0,1.01974 0.83182,1.85156 1.85156,1.85156c1.01975,0 1.85352,-0.83182 1.85352,-1.85156c0,-1.01975 -0.83377,-1.85352 -1.85352,-1.85352zm0,0.5293c0.73376,0 1.32422,0.59046 1.32422,1.32422c0,0.73376 -0.59046,1.32226 -1.32422,1.32226c-0.73376,0 -1.32226,-0.5885 -1.32226,-1.32226c0,-0.73376 0.5885,-1.32422 1.32226,-1.32422z"/>
 </g>
</svg>