<?xml version="1.0" encoding="UTF-8"?>
<svg xmlns="http://www.w3.org/2000/svg" xmlns:xlink="http://www.w3.org/1999/xlink" viewBox="0 0 48 48" width="48px" height="48px">
<g id="surface14486369">
<path style=" stroke:none;fill-rule:nonzero;fill:rgb(100%,100%,100%);fill-opacity:1;" d="M 24 3 C 20.269531 3 18.242188 3.945312 16.792969 4.574219 L 16.789062 4.574219 C 15.488281 5.140625 14.703125 6.320312 14.363281 7.429688 C 14.027344 8.539062 14 9.652344 14 10.640625 L 14 14 L 10.640625 14 C 9.652344 14 8.539062 14.027344 7.429688 14.363281 C 6.320312 14.703125 5.140625 15.488281 4.574219 16.789062 L 4.574219 16.792969 C 3.945312 18.238281 3 20.269531 3 24 C 3 27.730469 3.945312 29.757812 4.574219 31.207031 L 4.574219 31.210938 C 5.140625 32.511719 6.320312 33.296875 7.429688 33.636719 C 8.539062 33.972656 9.652344 34 10.640625 34 L 14 34 L 14 37.359375 C 14 38.347656 14.027344 39.460938 14.363281 40.570312 C 14.703125 41.679688 15.488281 42.859375 16.789062 43.425781 L 16.792969 43.425781 C 18.238281 44.054688 20.269531 45 24 45 C 27.730469 45 29.757812 44.054688 31.207031 43.425781 L 31.210938 43.425781 C 32.511719 42.859375 33.296875 41.679688 33.636719 40.570312 C 33.972656 39.460938 34 38.347656 34 37.359375 L 34 34 L 37.359375 34 C 38.347656 34 39.460938 33.972656 40.570312 33.636719 C 41.679688 33.296875 42.859375 32.511719 43.425781 31.210938 L 43.425781 31.207031 C 44.054688 29.761719 45 27.730469 45 24 C 45 20.269531 44.054688 18.242188 43.425781 16.792969 L 43.425781 16.789062 C 42.859375 15.488281 41.679688 14.703125 40.570312 14.363281 C 39.460938 14.027344 38.347656 14 37.359375 14 L 34 14 L 34 10.640625 C 34 9.652344 33.972656 8.539062 33.636719 7.429688 C 33.296875 6.320312 32.511719 5.140625 31.210938 4.574219 L 31.207031 4.574219 C 29.761719 3.945312 27.730469 3 24 3 Z M 24 6 C 27.269531 6 28.460938 6.652344 30.007812 7.324219 C 30.425781 7.507812 30.589844 7.734375 30.765625 8.308594 C 30.941406 8.878906 31 9.742188 31 10.640625 L 31 15.253906 C 30.972656 15.414062 30.972656 15.578125 31 15.738281 L 31 19 C 31 20.949219 29.449219 22.5 27.5 22.5 L 20.5 22.5 C 16.929688 22.5 14 25.429688 14 29 L 14 31 L 10.640625 31 C 9.742188 31 8.878906 30.941406 8.308594 30.765625 C 7.734375 30.589844 7.507812 30.425781 7.324219 30.007812 C 6.652344 28.460938 6 27.269531 6 24 C 6 20.730469 6.652344 19.539062 7.324219 17.992188 C 7.507812 17.574219 7.734375 17.410156 8.308594 17.234375 C 8.878906 17.058594 9.742188 17 10.640625 17 L 23.5 17 C 24.039062 17.007812 24.542969 16.722656 24.816406 16.257812 C 25.089844 15.789062 25.089844 15.210938 24.816406 14.742188 C 24.542969 14.277344 24.039062 13.992188 23.5 14 L 17 14 L 17 10.640625 C 17 9.742188 17.058594 8.878906 17.234375 8.308594 C 17.410156 7.734375 17.574219 7.507812 17.992188 7.324219 C 19.539062 6.652344 20.730469 6 24 6 Z M 20.5 9 C 19.671875 9 19 9.671875 19 10.5 C 19 11.328125 19.671875 12 20.5 12 C 21.328125 12 22 11.328125 22 10.5 C 22 9.671875 21.328125 9 20.5 9 Z M 34 17 L 37.359375 17 C 38.257812 17 39.121094 17.058594 39.691406 17.234375 C 40.265625 17.410156 40.492188 17.574219 40.675781 17.992188 C 41.347656 19.539062 42 20.730469 42 24 C 42 27.269531 41.347656 28.460938 40.675781 30.007812 C 40.492188 30.425781 40.265625 30.589844 39.691406 30.765625 C 39.121094 30.941406 38.257812 31 37.359375 31 L 24.5 31 C 23.960938 30.992188 23.457031 31.277344 23.183594 31.742188 C 22.910156 32.210938 22.910156 32.789062 23.183594 33.257812 C 23.457031 33.722656 23.960938 34.007812 24.5 34 L 31 34 L 31 37.359375 C 31 38.257812 30.941406 39.121094 30.765625 39.691406 C 30.589844 40.265625 30.425781 40.492188 30.007812 40.675781 C 28.460938 41.347656 27.269531 42 24 42 C 20.730469 42 19.539062 41.347656 17.992188 40.675781 C 17.574219 40.492188 17.410156 40.265625 17.234375 39.691406 C 17.058594 39.121094 17 38.257812 17 37.359375 L 17 29 C 17 27.050781 18.550781 25.5 20.5 25.5 L 27.5 25.5 C 31.070312 25.5 34 22.570312 34 19 Z M 27.5 36 C 26.671875 36 26 36.671875 26 37.5 C 26 38.328125 26.671875 39 27.5 39 C 28.328125 39 29 38.328125 29 37.5 C 29 36.671875 28.328125 36 27.5 36 Z M 27.5 36 "/>
</g>
</svg>
